<svg width="170" height="160" viewBox="0 0 170 160" fill="none" xmlns="http://www.w3.org/2000/svg">
<path d="M142.278 114.43L169.904 150.127H114.653L142.278 114.43Z" fill="#404838"/>
<path d="M160 80C160 124.183 124.183 160 80 160C35.8172 160 0 124.183 0 80C0 35.8172 35.8172 0 80 0C124.183 0 160 35.8172 160 80Z" fill="#404838"/>
<path d="M100.883 150.84C94.3023 152.846 87.3243 153.924 80.0976 153.924C40.3351 153.924 8.10126 121.281 8.10126 81.0127C8.10126 79.9781 8.12253 78.9486 8.16467 77.9245C22.0759 58.8643 43.1813 44.09 66.7269 46.1194C36.3856 80.4919 45.8491 137.779 110.439 146.112C107.221 147.954 104.033 149.524 100.883 150.84Z" fill="#E4E1C6"/>
<path d="M102.094 11.567C107.746 13.7638 113.007 16.6341 117.639 20.0796C126.895 42.4738 128.952 66.9512 115.067 86.7415C100.946 43.2587 47.6702 24.0944 8.32811 75.1831C11.2607 37.6409 42.2728 8.10132 80.0976 8.10132C87.7692 8.10132 95.1607 9.31646 102.094 11.567Z" fill="#BCBC8F"/>
<path d="M140.147 121.251C147.697 109.719 152.094 95.8858 152.094 81.0127C152.094 62.5152 145.292 45.6266 134.083 32.7719C130.181 28.6309 125.671 24.5793 120.504 20.6584C120.159 20.4204 119.81 20.1854 119.46 19.9533C144.527 80.7016 100.464 119.595 55.9274 110.177C66.9336 132.608 88.84 141.946 114.159 144.988C114.241 144.951 114.324 144.914 114.406 144.877L114.329 144.966H157.975L140.147 121.251Z" fill="#F0F0E7"/>
<path d="M140.147 121.251C147.697 109.719 152.094 95.8858 152.094 81.0127C152.094 62.5152 145.292 45.6266 134.083 32.7719C130.181 28.6309 125.671 24.5793 120.504 20.6584C120.159 20.4204 119.81 20.1854 119.46 19.9533C144.527 80.7016 100.464 119.595 55.9274 110.177C66.9336 132.608 88.84 141.946 114.159 144.988C114.241 144.951 114.324 144.914 114.406 144.877L114.329 144.966H157.975L140.147 121.251Z" fill="#F0F0E7"/>
</svg>
